<svg width="70" height="48" viewBox="0 0 70 48" fill="none" xmlns="http://www.w3.org/2000/svg">
<path d="M68.5412 7.49455C67.7394 4.54909 65.3675 2.22546 62.3497 1.42909C56.8931 5.0962e-07 35 0 35 0C35 0 13.118 5.0962e-07 7.65033 1.42909C4.64365 2.21455 2.27171 4.53818 1.4588 7.49455C0 12.84 0 24 0 24C0 24 0 35.16 1.4588 40.5055C2.26058 43.4509 4.63252 45.7745 7.65033 46.5709C13.118 48 35 48 35 48C35 48 56.8931 48 62.3497 46.5709C65.3563 45.7854 67.7283 43.4618 68.5412 40.5055C70 35.16 70 24 70 24C70 24 70 12.84 68.5412 7.49455Z" fill="#9575CD"/>
<path d="M28.0067 34.2873L46.1915 24L28.0067 13.7127V34.2873Z" fill="white"/>
</svg>
