<svg width="155" height="96" viewBox="0 0 155 96" fill="none" xmlns="http://www.w3.org/2000/svg">
<path d="M1.875 47C1.45833 44.6667 1.33333 42.25 1.5 39.75C1.66667 37.25 1.75 34.8333 1.75 32.5C1.75 30.25 1.58333 27.875 1.25 25.375C1 22.7917 0.75 20.3333 0.5 18C0.333333 15.6667 0.25 13.5417 0.25 11.625C0.333333 9.625 0.625 8.08333 1.125 7C1.79167 5.75 2.625 4.79167 3.625 4.125C4.625 3.375 5.58333 2.54167 6.5 1.625C7.58333 1.79167 8.54167 2.125 9.375 2.625C10.2917 3.04167 11.0417 3.625 11.625 4.375C12.2917 5.04167 12.75 5.75 13 6.5C13.3333 7.25 13.4167 8 13.25 8.75C15.3333 10 17 11.7083 18.25 13.875C19.5833 15.9583 20.5833 18.2917 21.25 20.875C22 23.375 22.5 26.0417 22.75 28.875C23.0833 31.7083 23.3333 34.5 23.5 37.25C23.75 40 23.9583 42.625 24.125 45.125C24.375 47.5417 24.7917 49.6667 25.375 51.5C29.0417 46.1667 32.125 41.4583 34.625 37.375C37.2083 33.2083 39.7917 29.25 42.375 25.5C44.9583 21.6667 47.8333 17.7917 51 13.875C54.25 9.95833 58.375 5.54167 63.375 0.625C64.4583 0.791667 65.2917 1 65.875 1.25C66.4583 1.5 67.0417 1.75 67.625 2C68.2083 2.25 68.8333 2.45833 69.5 2.625C70.1667 2.70833 71.0833 2.66667 72.25 2.5C72.6667 3.5 72.9583 4.25 73.125 4.75C73.375 5.16667 73.5833 5.58333 73.75 6C73.9167 6.41667 74.125 6.95833 74.375 7.625C74.625 8.29167 75 9.29167 75.5 10.625C75.75 10.9583 75.8333 11.4167 75.75 12C75.75 12.5 75.7083 12.9583 75.625 13.375C75.5417 13.7917 75.5 14.125 75.5 14.375C75.5833 14.625 75.875 14.625 76.375 14.375C76.0417 15.7917 75.5 17.0833 74.75 18.25C74 19.3333 73.6667 20.6667 73.75 22.25C71.5 25.25 69 28.3333 66.25 31.5C63.5 34.6667 60.75 38 58 41.5C55.25 44.9167 52.5833 48.5 50 52.25C47.5 55.9167 45.375 59.8333 43.625 64C43.125 64 42.75 64.125 42.5 64.375C42.25 64.625 42 64.9167 41.75 65.25C41.5833 65.5833 41.375 65.9167 41.125 66.25C40.9583 66.5833 40.625 66.75 40.125 66.75C39.9583 69.4167 38.9583 71.9583 37.125 74.375C35.375 76.7083 33.5833 78.7083 31.75 80.375C31.9167 81.0417 32 81.5833 32 82C32 82.4167 31.9583 82.8333 31.875 83.25C31.7917 83.6667 31.7083 84.125 31.625 84.625C31.625 85.0417 31.6667 85.5833 31.75 86.25C31 88.25 30 89.9167 28.75 91.25C27.5833 92.5833 26.2917 93.5833 24.875 94.25C23.4583 94.9167 22 95.1667 20.5 95C19 94.9167 17.5833 94.4167 16.25 93.5C15.6667 93.1667 15.1667 92.7083 14.75 92.125C14.3333 91.5417 13.875 91 13.375 90.5C12.9583 89.9167 12.5 89.4167 12 89C11.5833 88.5 11.0417 88.1667 10.375 88C10.5417 87.1667 10.5417 86.2917 10.375 85.375C10.2917 84.4583 10.125 83.625 9.875 82.875C9.625 82.125 9.33333 81.5 9 81C8.66667 80.5 8.33333 80.25 8 80.25C7.66667 78.1667 7.20833 75.9167 6.625 73.5C6.125 71 5.58333 68.5417 5 66.125C4.5 63.7083 4.08333 61.3333 3.75 59C3.41667 56.6667 3.29167 54.5 3.375 52.5C3.45833 51.5 3.25 50.625 2.75 49.875C2.33333 49.0417 2.04167 48.0833 1.875 47ZM68.375 37.625C68.625 36.375 68.7917 35.375 68.875 34.625C68.9583 33.7917 68.6667 32.9167 68 32C68.3333 30.6667 68.5833 29.625 68.75 28.875C69 28.125 69.0417 27.0833 68.875 25.75C69.625 23.5833 70.75 21.75 72.25 20.25C73.8333 18.75 75.5417 17.5 77.375 16.5C79.2083 15.4167 81.125 14.5417 83.125 13.875C85.125 13.125 87 12.5 88.75 12C88.75 11.6667 88.5833 11.5 88.25 11.5C87.9167 11.5 87.8333 11.2917 88 10.875C92.5 10.0417 97 8.83333 101.5 7.25C106.083 5.66667 110.75 4.25 115.5 3C120.25 1.75 125.125 1 130.125 0.75C135.125 0.416667 140.375 1.04167 145.875 2.625C146.208 3.625 146.667 4.58333 147.25 5.5C147.833 6.41667 148.417 7.33333 149 8.25C149.667 9.08333 150.25 9.91667 150.75 10.75C151.25 11.5833 151.542 12.4583 151.625 13.375C152.625 14.2917 153.417 15.2917 154 16.375C154.667 17.375 154.792 18.75 154.375 20.5C153.458 21.1667 152.5 21.8333 151.5 22.5C150.5 23.1667 149.458 23.7917 148.375 24.375C144.625 23.4583 140.875 23.125 137.125 23.375C133.375 23.625 130 23.9167 127 24.25C126.083 23.25 125 22.7917 123.75 22.875C122.5 22.875 121.167 23.0833 119.75 23.5C118.417 23.8333 117.083 24.2083 115.75 24.625C114.417 24.9583 113.167 25.0417 112 24.875C111.083 25.7083 109.875 26.2917 108.375 26.625C106.875 26.875 105.292 27.0833 103.625 27.25C103.542 27.6667 103.625 27.9583 103.875 28.125C104.125 28.2917 104.167 28.625 104 29.125C104.583 29.875 105.375 30.4167 106.375 30.75C107.375 31 108.375 31.25 109.375 31.5C110.458 31.75 111.417 32.125 112.25 32.625C113.083 33.0417 113.625 33.75 113.875 34.75C115.375 34.8333 116.667 35.25 117.75 36C118.833 36.6667 119.75 37.5 120.5 38.5C121.25 39.5 121.792 40.5833 122.125 41.75C122.458 42.8333 122.583 43.8333 122.5 44.75C122.833 45.5833 123.167 45.9167 123.5 45.75C123.917 45.5833 124.375 45.7917 124.875 46.375C125.208 47.625 125.958 48.9583 127.125 50.375C128.375 51.7083 129.333 53.1667 130 54.75C130.167 57.25 130.292 59.5 130.375 61.5C130.542 63.5 130.208 65.4583 129.375 67.375C127.958 71.0417 125.917 74.3333 123.25 77.25C120.583 80.1667 117.542 82.75 114.125 85C110.792 87.1667 107.25 89.0833 103.5 90.75C99.75 92.3333 96.0417 93.6667 92.375 94.75C92.0417 94.6667 91.625 94.6667 91.125 94.75C90.7083 94.8333 90.625 94.5833 90.875 94C90.125 94.6667 89.25 95.0833 88.25 95.25C87.3333 95.4167 86.2917 95.4583 85.125 95.375C84.0417 95.375 82.9167 95.3333 81.75 95.25C80.6667 95.1667 79.5833 95.2083 78.5 95.375C77.8333 94.7083 77.2083 94.0417 76.625 93.375C76.125 92.7083 75.7083 91.9167 75.375 91C74.9583 90.9167 74.75 90.6667 74.75 90.25C74.8333 89.75 74.6667 89.5 74.25 89.5C74.25 89.1667 74.2917 88.9167 74.375 88.75C74.4583 88.5833 74.5417 88.4167 74.625 88.25C74.9583 88 75.0833 87.8333 75 87.75C75 87.5833 74.875 87.4583 74.625 87.375C74.4583 87.2083 74.25 87.0417 74 86.875C73.8333 86.7083 73.7917 86.5 73.875 86.25C74.2917 85.5 74.4167 84.625 74.25 83.625C74.1667 82.5417 74.0833 81.4583 74 80.375C73.9167 79.2917 74 78.2917 74.25 77.375C74.5 76.375 75.2083 75.5417 76.375 74.875C79.7917 75.2083 83 75.0417 86 74.375C89.0833 73.7083 91.9583 72.7917 94.625 71.625C97.375 70.4583 99.9583 69.2083 102.375 67.875C104.875 66.4583 107.292 65.1667 109.625 64C109.875 63.1667 110.25 62.4583 110.75 61.875C111.333 61.2917 111.917 60.75 112.5 60.25C113.083 59.6667 113.625 59.0833 114.125 58.5C114.625 57.8333 115 57.0417 115.25 56.125C115.333 55.7917 115.333 55.5417 115.25 55.375C115.167 55.2083 115.042 55.0833 114.875 55C114.708 54.8333 114.542 54.6667 114.375 54.5C114.208 54.3333 114.125 54.0833 114.125 53.75C113.875 53.6667 113.625 53.5833 113.375 53.5C113.208 53.4167 113.042 53.375 112.875 53.375C110.708 52.2917 108.417 51.375 106 50.625C103.583 49.875 101.542 49.0417 99.875 48.125C98.875 48.7917 97.875 48.9583 96.875 48.625C95.875 48.2917 94.6667 47.9583 93.25 47.625C89.75 47.4583 86.4167 47.125 83.25 46.625C80.1667 46.125 77.1667 45.25 74.25 44C74.0833 43.5 73.875 43.0833 73.625 42.75C73.375 42.3333 72.7917 42.2083 71.875 42.375C71.2917 41.5417 70.6667 40.7917 70 40.125C69.4167 39.375 68.875 38.5417 68.375 37.625Z" fill="white"/>
</svg>
